<svg
    xmlns="http://www.w3.org/2000/svg"
    viewBox="0 0 24 24"
  >
    <path fill="currentColor"
      d="M21.976,9h-5.976c-1.654,0-3-1.346-3-3V.024c-.161-.011-1.322-.024-1.485-.024H7C4.243,0,2,2.243,2,5v14c0,2.757,2.243,5,5,5h10c2.757,0,5-2.243,5-5V9.485c0-.163-.013-.324-.024-.485ZM9,4.999c1.105,0,2,.895,2,2s-.895,2-2,2-2-.895-2-2,.895-2,2-2Zm-2.744,6.392c.109-.143,1.113-1.392,2.77-1.392s2.659,1.25,2.769,1.392c.336,.438,.253,1.066-.186,1.402-.182,.139-.396,.206-.607,.206-.301,0-.598-.135-.795-.392,0,0-.497-.608-1.181-.608s-1.177,.602-1.182,.608c-.336,.439-.962,.523-1.402,.186-.438-.335-.521-.963-.186-1.402Zm10.744,9.609H7c-.553,0-1-.448-1-1s.447-1,1-1h10c.553,0,1,.448,1,1s-.447,1-1,1Zm0-4H7c-.553,0-1-.448-1-1s.447-1,1-1h10c.553,0,1,.448,1,1s-.447,1-1,1Zm-1-10c-.552,0-1-.448-1-1V.942c.527,.302,1.023,.666,1.465,1.107l3.484,3.486c.442,.441,.806,.937,1.108,1.464h-5.057Z"
    />
  </svg>